<?xml version="1.0" encoding="UTF-8"?>
<svg xmlns="http://www.w3.org/2000/svg" width="1180" height="640" viewBox="0 0 1180 640">
  <rect x="0" y="0" width="1180" height="640" fill="#f6f3ea"/>

  <text x="28" y="36" font-family="Liberation Sans, DejaVu Sans, sans-serif" font-size="22" font-weight="700" fill="#241c16">Котел: кега 30 л + жаровой стакан D200</text>
  <text x="28" y="58" font-family="Liberation Sans, DejaVu Sans, sans-serif" font-size="13" fill="#6b6258">Продольный разрез. Вода в рубашке между кегой и стаканом. Факел реверсится внутри стакана.</text>
  <line x1="28" y1="70" x2="1152" y2="70" stroke="#e0d6c6" stroke-width="1"/>

  <path d="M 230,145 C 205,145 188,250 188,320 C 188,390 205,495 230,495 L 620,495 C 645,495 662,390 662,320 C 662,250 645,145 620,145 Z" fill="#c5dcea" stroke="#2a241e" stroke-width="2.2"/>

  <path d="M 248,220 L 575,220 C 592,220 605,268 608,320 C 605,372 592,420 575,420 L 248,420 Z" fill="#f3e4c8" stroke="#8c3b14" stroke-width="2.4"/>

  <path d="M 575,220 C 598,255 612,285 612,320 C 612,355 598,385 575,420" fill="none" stroke="#5c2a10" stroke-width="5" stroke-linecap="round"/>

  <rect x="236" y="218" width="12" height="204" fill="#e8d3b0" stroke="#8c3b14" stroke-width="1.8"/>

  <rect x="168" y="268" width="70" height="104" rx="4" fill="#d9d1c4" stroke="#2a241e" stroke-width="1.8"/>
  <circle cx="203" cy="320" r="50" fill="#cfc6b8" stroke="#2a241e" stroke-width="1.4"/>
  <circle cx="203" cy="320" r="38" fill="#f3e4c8" stroke="#8c3b14" stroke-width="1.6"/>

  <rect x="28" y="278" width="142" height="84" fill="#e4dccf" stroke="#2a241e" stroke-width="1.8"/>
  <rect x="48" y="292" width="100" height="56" fill="#c8c0b3" stroke="#2a241e" stroke-width="1.2"/>
  <text x="99" y="318" text-anchor="middle" font-family="Liberation Sans, DejaVu Sans, sans-serif" font-size="12" fill="#3c342c">горелка</text>
  <text x="99" y="334" text-anchor="middle" font-family="Liberation Sans, DejaVu Sans, sans-serif" font-size="12" fill="#3c342c">выход D100</text>

  <path d="M 248,320 L 548,320" fill="none" stroke="#c45c12" stroke-width="3.2"/>
  <polygon points="560,320 542,312 542,328" fill="#c45c12"/>
  <path d="M 270,300 Q 400,292 545,310" fill="none" stroke="#e08940" stroke-width="1.6" stroke-dasharray="6 5"/>
  <path d="M 270,340 Q 400,348 545,330" fill="none" stroke="#e08940" stroke-width="1.6" stroke-dasharray="6 5"/>
  <text x="390" y="308" font-family="Liberation Sans, DejaVu Sans, sans-serif" font-size="13" font-weight="700" fill="#241c16">факел / циклон</text>

  <rect x="268" y="78" width="52" height="142" fill="#d9d1c4" stroke="#2a241e" stroke-width="1.8"/>
  <rect x="276" y="86" width="36" height="126" fill="#f6f3ea" stroke="#2a241e" stroke-width="1.2"/>
  <text x="294" y="70" text-anchor="middle" font-family="Liberation Sans, DejaVu Sans, sans-serif" font-size="12" fill="#3c342c">дымоход</text>

  <path d="M 330,216 L 356,216 L 354,248 L 332,246 Z" fill="#5c2a10" stroke="#2a241e" stroke-width="1.2"/>
  <text x="364" y="200" font-family="Liberation Sans, DejaVu Sans, sans-serif" font-size="12" fill="#3c342c">козырек</text>

  <path d="M 555,248 C 490,230 420,226 368,228 C 358,230 352,238 348,258 C 344,272 328,276 314,262 C 304,250 298,236 294,228" fill="none" stroke="#c45c12" stroke-width="2.4"/>
  <path d="M 294,228 L 294,132" fill="none" stroke="#c45c12" stroke-width="2.2"/>
  <polygon points="294,118 286,136 302,136" fill="#c45c12"/>
  <text x="430" y="216" font-family="Liberation Sans, DejaVu Sans, sans-serif" font-size="13" font-weight="700" fill="#241c16">реверс</text>

  <path d="M 250,175 L 568,175" fill="none" stroke="#2a6f9b" stroke-width="1.8"/>
  <polygon points="580,175 564,168 564,182" fill="#2a6f9b"/>
  <path d="M 580,465 L 262,465" fill="none" stroke="#2a6f9b" stroke-width="1.8"/>
  <polygon points="250,465 266,458 266,472" fill="#2a6f9b"/>
  <text x="400" y="168" font-family="Liberation Sans, DejaVu Sans, sans-serif" font-size="12" fill="#2a6f9b">вода, рубашка</text>

  <line x1="612" y1="320" x2="658" y2="320" stroke="#9a3412" stroke-width="1.2"/>
  <line x1="612" y1="312" x2="612" y2="328" stroke="#9a3412" stroke-width="1.2"/>
  <line x1="658" y1="312" x2="658" y2="328" stroke="#9a3412" stroke-width="1.2"/>
  <text x="635" y="308" text-anchor="middle" font-family="Liberation Sans, DejaVu Sans, sans-serif" font-size="12" font-weight="700" fill="#9a3412">25-40</text>

  <line x1="500" y1="220" x2="500" y2="420" stroke="#9a3412" stroke-width="1.1" stroke-dasharray="4 3"/>
  <text x="512" y="328" font-family="Liberation Sans, DejaVu Sans, sans-serif" font-size="12" font-weight="700" fill="#9a3412">D200</text>
  <text x="512" y="344" font-family="Liberation Sans, DejaVu Sans, sans-serif" font-size="12" fill="#3c342c">стенка 2.5</text>

  <line x1="700" y1="145" x2="700" y2="495" stroke="#9a3412" stroke-width="1.1"/>
  <line x1="692" y1="145" x2="708" y2="145" stroke="#9a3412"/>
  <line x1="692" y1="495" x2="708" y2="495" stroke="#9a3412"/>
  <text x="722" y="320" text-anchor="middle" font-family="Liberation Sans, DejaVu Sans, sans-serif" font-size="12" font-weight="700" fill="#9a3412" transform="rotate(90 722 320)">кега D360-400, 1.5 мм</text>

  <line x1="188" y1="530" x2="662" y2="530" stroke="#9a3412" stroke-width="1.1"/>
  <line x1="188" y1="522" x2="188" y2="538" stroke="#9a3412"/>
  <line x1="662" y1="522" x2="662" y2="538" stroke="#9a3412"/>
  <text x="425" y="552" text-anchor="middle" font-family="Liberation Sans, DejaVu Sans, sans-serif" font-size="12" font-weight="700" fill="#9a3412">длина кеги ~400 (ориентир 30 л)</text>

  <rect x="430" y="118" width="28" height="28" fill="#d9d1c4" stroke="#2a241e" stroke-width="1.4"/>
  <text x="444" y="108" text-anchor="middle" font-family="Liberation Sans, DejaVu Sans, sans-serif" font-size="12" fill="#3c342c">подача</text>
  <rect x="520" y="494" width="28" height="28" fill="#d9d1c4" stroke="#2a241e" stroke-width="1.4"/>
  <text x="534" y="542" text-anchor="middle" font-family="Liberation Sans, DejaVu Sans, sans-serif" font-size="12" fill="#3c342c">обратка</text>
  <circle cx="390" cy="145" r="7" fill="#ffffff" stroke="#2a241e" stroke-width="1.4"/>
  <text x="402" y="132" font-family="Liberation Sans, DejaVu Sans, sans-serif" font-size="12" fill="#3c342c">воздух / предохр.</text>

  <path d="M 790,200 C 775,200 764,250 764,320 C 764,390 775,440 790,440 L 980,440 C 995,440 1006,390 1006,320 C 1006,250 995,200 980,200 Z" fill="none" stroke="#8b939c" stroke-width="1.6" stroke-dasharray="8 6"/>
  <rect x="320" y="78" width="40" height="14" fill="none" stroke="#8b939c" stroke-width="1.2" stroke-dasharray="5 4"/>
  <path d="M 360,85 L 764,280" fill="none" stroke="#8b939c" stroke-width="1.2" stroke-dasharray="5 4"/>
  <text x="786" y="188" font-family="Liberation Sans, DejaVu Sans, sans-serif" font-size="12" fill="#6b6258">вторая кега</text>

  <circle cx="1040" cy="560" r="78" fill="#f3e4c8" stroke="#8c3b14" stroke-width="2.2"/>
  <path d="M 972.0,528.3 L 975.7,521.5 L 980.0,515.1 L 984.9,509.1 L 990.4,503.7 L 996.5,498.9 L 1003.0,494.8 L 1009.9,491.3 L 1017.2,488.6 L 1024.6,486.6 L 1032.3,485.4 L 1040.0,485.0 L 1047.7,485.4 L 1055.4,486.6 L 1062.8,488.6 L 1070.1,491.3 L 1077.0,494.8 L 1083.5,498.9 L 1089.6,503.7 L 1095.1,509.1 L 1100.0,515.1 L 1104.3,521.5 L 1108.0,528.3 L 1088.9,537.2 L 1086.3,532.3 L 1083.2,527.6 L 1079.7,523.4 L 1075.7,519.5 L 1071.3,516.0 L 1066.6,513.0 L 1061.7,510.5 L 1056.4,508.6 L 1051.1,507.1 L 1045.6,506.3 L 1040.0,506.0 L 1034.4,506.3 L 1028.9,507.1 L 1023.6,508.6 L 1018.3,510.5 L 1013.4,513.0 L 1008.7,516.0 L 1004.3,519.5 L 1000.3,523.4 L 996.8,527.6 L 993.7,532.3 L 991.1,537.2 Z" fill="#5c2a10" stroke="#2a241e" stroke-width="1.2"/>
  <path d="M 991.1,537.2 L 994.3,531.2 L 998.3,525.7 L 1002.9,520.7 L 1008.2,516.4 L 1013.9,512.7 L 1020.1,509.8 L 1026.5,507.7 L 1033.2,506.4 L 1040.0,506.0 L 1046.8,506.4 L 1053.5,507.7 L 1059.9,509.8 L 1066.1,512.7 L 1071.8,516.4 L 1077.1,520.7 L 1081.7,525.7 L 1085.7,531.2 L 1088.9,537.2 L 1081.7,540.6 L 1078.9,535.5 L 1075.5,530.8 L 1071.6,526.5 L 1067.1,522.8 L 1062.2,519.7 L 1057.0,517.3 L 1051.5,515.5 L 1045.8,514.4 L 1040.0,514.0 L 1034.2,514.4 L 1028.5,515.5 L 1023.0,517.3 L 1017.8,519.7 L 1012.9,522.8 L 1008.4,526.5 L 1004.5,530.8 L 1001.1,535.5 L 998.3,540.6 Z" fill="#8c3b14" stroke="#2a241e" stroke-width="1"/>
  <circle cx="1040" cy="560" r="38" fill="#cfc6b8" stroke="#2a241e" stroke-width="1.4"/>
  <text x="1040" y="556" text-anchor="middle" font-family="Liberation Sans, DejaVu Sans, sans-serif" font-size="12" fill="#3c342c">горелка</text>
  <text x="1040" y="572" text-anchor="middle" font-family="Liberation Sans, DejaVu Sans, sans-serif" font-size="12" fill="#3c342c">D100</text>
  <rect x="1020" y="448" width="40" height="36" fill="#d9d1c4" stroke="#2a241e" stroke-width="1.4"/>
  <text x="900" y="470" font-family="Liberation Sans, DejaVu Sans, sans-serif" font-size="13" font-weight="700" fill="#241c16">вид спереди</text>
  <text x="900" y="488" font-family="Liberation Sans, DejaVu Sans, sans-serif" font-size="12" fill="#3c342c">козырек</text>
</svg>
