<?xml version="1.0" encoding="UTF-8"?>
<svg xmlns="http://www.w3.org/2000/svg" width="1104" height="680" viewBox="0 0 1104 680">
<rect width="1104" height="680" fill="#f6f3ea"/>
<defs>
<style type="text/css"><![CDATA[
text { font-family: DejaVu Sans, Liberation Sans, sans-serif; fill: #241c16; }
.title { font-size: 26px; font-weight: 700; }
.lab { font-size: 16px; font-weight: 700; }
.sm { font-size: 14px; fill: #3c342c; }
.pin { font-size: 12px; fill: #3c342c; }
.tiny { font-size: 11px; fill: #5c544c; }
]]></style>
</defs>
<text class="title" x="16" y="30">MKS DLC32 — куда что садится</text>
<rect x="288" y="46" width="528" height="500" rx="14" fill="#dce8d6" stroke="#2a5a38" stroke-width="2.2"/>
<text class="lab" x="690" y="66" text-anchor="middle">Makerbase MKS DLC32 V2.1</text>
<rect x="300" y="74" width="78" height="46" rx="4" fill="#f3f0ea" stroke="#b0a89c" stroke-width="1.2" stroke-dasharray="4 3"/>
<text class="tiny" x="339" y="90" text-anchor="middle">X-MOTOR</text>
<text class="tiny" x="339" y="104" text-anchor="middle">2B 2A 1A 1B</text>
<circle cx="308" cy="113" r="2.2" fill="#2a5a38"/>
<circle cx="318" cy="113" r="2.2" fill="#2a5a38"/>
<circle cx="328" cy="113" r="2.2" fill="#2a5a38"/>
<circle cx="338" cy="113" r="2.2" fill="#2a5a38"/>
<rect x="384" y="74" width="78" height="46" rx="4" fill="#f3f0ea" stroke="#b0a89c" stroke-width="1.2" stroke-dasharray="4 3"/>
<text class="tiny" x="423" y="90" text-anchor="middle">Y-MOTOR</text>
<text class="tiny" x="423" y="104" text-anchor="middle">2B 2A 1A 1B</text>
<circle cx="392" cy="113" r="2.2" fill="#2a5a38"/>
<circle cx="402" cy="113" r="2.2" fill="#2a5a38"/>
<circle cx="412" cy="113" r="2.2" fill="#2a5a38"/>
<circle cx="422" cy="113" r="2.2" fill="#2a5a38"/>
<rect x="468" y="74" width="78" height="46" rx="4" fill="#ffffff" stroke="#2a5a38" stroke-width="1.2"/>
<text class="tiny" x="507" y="90" text-anchor="middle">Z-MOTOR</text>
<text class="tiny" x="507" y="104" text-anchor="middle">экструдер</text>
<circle cx="476" cy="113" r="2.2" fill="#2a5a38"/>
<circle cx="486" cy="113" r="2.2" fill="#2a5a38"/>
<circle cx="496" cy="113" r="2.2" fill="#2a5a38"/>
<circle cx="506" cy="113" r="2.2" fill="#2a5a38"/>
<rect x="552" y="74" width="50" height="46" rx="4" fill="#f3f0ea" stroke="#b0a89c" stroke-width="1.2" stroke-dasharray="4 3"/>
<text class="tiny" x="577" y="94" text-anchor="middle">12/24V</text>
<text class="tiny" x="577" y="110" text-anchor="middle">+ −</text>
<rect x="604" y="74" width="50" height="46" rx="4" fill="#f3f0ea" stroke="#b0a89c" stroke-width="1.2" stroke-dasharray="4 3"/>
<text class="tiny" x="629" y="94" text-anchor="middle">TTL</text>
<text class="tiny" x="629" y="110" text-anchor="middle">пусто</text>
<rect x="552" y="128" width="50" height="64" rx="4" fill="#f3f0ea" stroke="#b0a89c" stroke-width="1.2" stroke-dasharray="4 3"/>
<text class="tiny" x="577" y="142" text-anchor="middle">I2C</text>
<text class="tiny" x="566" y="158" text-anchor="middle">3V3</text>
<text class="tiny" x="588" y="158" text-anchor="middle">GND</text>
<text class="tiny" x="566" y="172" text-anchor="middle">IO0</text>
<text class="tiny" x="588" y="172" text-anchor="middle">IO4</text>
<rect x="604" y="128" width="50" height="64" rx="4" fill="#ffffff" stroke="#2a5a38" stroke-width="1.2"/>
<text class="tiny" x="629" y="142" text-anchor="middle">Probe</text>
<text class="tiny" x="618" y="158" text-anchor="middle">5V</text>
<text class="tiny" x="640" y="158" text-anchor="middle">GND</text>
<text class="tiny" x="618" y="172" text-anchor="middle">IO22</text>
<rect x="656" y="128" width="50" height="64" rx="4" fill="#ffffff" stroke="#2a5a38" stroke-width="1.2"/>
<text class="tiny" x="681" y="142" text-anchor="middle">Z−</text>
<text class="tiny" x="670" y="158" text-anchor="middle">5V</text>
<text class="tiny" x="692" y="158" text-anchor="middle">GND</text>
<text class="tiny" x="670" y="172" text-anchor="middle">IO34</text>
<rect x="708" y="128" width="50" height="64" rx="4" fill="#ffffff" stroke="#2a5a38" stroke-width="1.2"/>
<text class="tiny" x="733" y="142" text-anchor="middle">Y−</text>
<text class="tiny" x="722" y="158" text-anchor="middle">5V</text>
<text class="tiny" x="744" y="158" text-anchor="middle">GND</text>
<text class="tiny" x="722" y="172" text-anchor="middle">IO35</text>
<rect x="760" y="128" width="50" height="64" rx="4" fill="#ffffff" stroke="#2a5a38" stroke-width="1.2"/>
<text class="tiny" x="785" y="142" text-anchor="middle">X−</text>
<text class="tiny" x="774" y="158" text-anchor="middle">5V</text>
<text class="tiny" x="796" y="158" text-anchor="middle">GND</text>
<text class="tiny" x="774" y="172" text-anchor="middle">IO36</text>
<rect x="300" y="128" width="78" height="80" rx="4" fill="#f3f0ea" stroke="#b0a89c" stroke-width="1.2" stroke-dasharray="4 3"/>
<text class="sm" x="339" y="148" text-anchor="middle">X</text>
<text class="tiny" x="339" y="166" text-anchor="middle">сокет пусто</text>
<text class="tiny" x="339" y="180" text-anchor="middle">DIP</text>
<text class="pin" x="339" y="198" text-anchor="middle">E S D G</text>
<rect x="384" y="128" width="78" height="80" rx="4" fill="#f3f0ea" stroke="#b0a89c" stroke-width="1.2" stroke-dasharray="4 3"/>
<text class="sm" x="423" y="148" text-anchor="middle">Y</text>
<text class="tiny" x="423" y="166" text-anchor="middle">сокет пусто</text>
<text class="tiny" x="423" y="180" text-anchor="middle">DIP</text>
<text class="pin" x="423" y="198" text-anchor="middle">E S D G</text>
<rect x="468" y="128" width="78" height="80" rx="4" fill="#ffffff" stroke="#2a5a38" stroke-width="1.2"/>
<text class="sm" x="507" y="148" text-anchor="middle">Z</text>
<text class="tiny" x="507" y="166" text-anchor="middle">драйвер E</text>
<text class="tiny" x="507" y="180" text-anchor="middle">EN в сокете</text>
<text class="pin" x="507" y="198" text-anchor="middle">ESDG нет</text>
<rect x="300" y="224" width="78" height="28" rx="4" fill="#f3f0ea" stroke="#b0a89c" stroke-width="1.2" stroke-dasharray="4 3"/>
<text class="tiny" x="339" y="242" text-anchor="middle">12/24V выход</text>
<rect x="300" y="268" width="78" height="44" rx="4" fill="#ffffff" stroke="#2a5a38" stroke-width="1.2"/>
<text class="sm" x="339" y="286" text-anchor="middle">BEEPER</text>
<text class="tiny" x="339" y="302" text-anchor="middle">S · 12/24V</text>
<rect x="300" y="318" width="78" height="44" rx="4" fill="#ffffff" stroke="#2a5a38" stroke-width="1.2"/>
<text class="sm" x="339" y="336" text-anchor="middle">SPINDLE</text>
<text class="tiny" x="339" y="352" text-anchor="middle">IO32 · 12/24V</text>
<rect x="300" y="368" width="78" height="28" rx="4" fill="#f3f0ea" stroke="#b0a89c" stroke-width="1.2" stroke-dasharray="4 3"/>
<text class="tiny" x="339" y="386" text-anchor="middle">SWITCH</text>
<rect x="406" y="250" width="200" height="90" rx="4" fill="#c5d4c0" stroke="#2a5a38" stroke-width="1.2"/>
<text class="sm" x="506" y="290" text-anchor="middle">U1 ESP32</text>
<text class="tiny" x="506" y="310" text-anchor="middle">Wi-Fi</text>
<rect x="610" y="210" width="200" height="140" rx="4" fill="#ffffff" stroke="#2a5a38" stroke-width="1.2"/>
<text class="sm" x="710" y="228" text-anchor="middle">EXP1</text>
<text class="pin" x="622" y="246">9 GND</text><text class="pin" x="710" y="246">10 5V</text>
<text class="pin" x="622" y="262">7 IO25 Z PUL</text><text class="pin" x="710" y="262">8 IO33 NTC</text>
<text class="pin" x="622" y="278">5 IO26 Z DIR</text><text class="pin" x="710" y="278">6 NC</text>
<text class="pin" x="622" y="294">3 IO5 реле</text><text class="pin" x="710" y="294">4 IO27 ШИМ</text>
<text class="pin" x="622" y="310">1 BEEPER</text><text class="pin" x="710" y="310">2 NC</text>
<text class="tiny" x="710" y="340" text-anchor="middle">пин 1 не занимать</text>
<rect x="610" y="356" width="200" height="124" rx="4" fill="#ffffff" stroke="#2a5a38" stroke-width="1.2"/>
<text class="sm" x="710" y="374" text-anchor="middle">EXP2</text>
<text class="pin" x="622" y="392">9 GND</text><text class="pin" x="710" y="392">10 3V3</text>
<text class="pin" x="622" y="408">7 NC</text><text class="pin" x="710" y="408">8 RESET</text>
<text class="pin" x="622" y="424">5 NC</text><text class="pin" x="710" y="424">6 IO23 CS</text>
<text class="pin" x="622" y="440">3 NC</text><text class="pin" x="710" y="440">4 NC</text>
<text class="pin" x="622" y="456">1 IO19 DO</text><text class="pin" x="710" y="456">2 IO18 SCK</text>
<rect x="300" y="480" width="100" height="44" rx="4" fill="#efe8dc" stroke="#5c544c" stroke-width="1.2"/>
<text class="sm" x="350" y="498" text-anchor="middle">POWER</text>
<text class="tiny" x="350" y="514" text-anchor="middle">DC 12V/24V</text>
<rect x="408" y="480" width="80" height="44" rx="4" fill="#ffffff" stroke="#2a5a38" stroke-width="1.2"/>
<text class="sm" x="448" y="498" text-anchor="middle">USB</text>
<text class="tiny" x="448" y="514" text-anchor="middle">TXD0 RXD0</text>
<rect x="496" y="480" width="64" height="44" rx="4" fill="#ffffff" stroke="#2a5a38" stroke-width="1.2"/>
<text class="sm" x="528" y="498" text-anchor="middle">SD</text>
<text class="tiny" x="528" y="514" text-anchor="middle">IO12–15</text>
<rect x="568" y="480" width="38" height="44" rx="4" fill="#f3f0ea" stroke="#b0a89c" stroke-width="1.2" stroke-dasharray="4 3"/>
<text class="tiny" x="587" y="506" text-anchor="middle">RESET</text>
<rect x="16" y="92" width="248" height="48" rx="8" fill="#e7eef6" stroke="#1e4d7b" stroke-width="1.2"/>
<text class="lab" x="28" y="112">Экструдер</text>
<text class="sm" x="28" y="130">сокет Z · мотор Z-MOTOR</text>
<rect x="16" y="150" width="248" height="64" rx="8" fill="#e7eef6" stroke="#1e4d7b" stroke-width="1.2"/>
<text class="lab" x="28" y="168">TB6600 X и Y</text>
<text class="sm" x="28" y="186">S PUL+ · D DIR+</text>
<text class="sm" x="28" y="204">E нет · G минус</text>
<rect x="16" y="268" width="248" height="44" rx="8" fill="#e7eef6" stroke="#1e4d7b" stroke-width="1.2"/>
<text class="lab" x="28" y="286">ENA осей</text>
<text class="sm" x="28" y="304">12/24V → ENA+ · S → ENA−</text>
<rect x="16" y="318" width="248" height="44" rx="8" fill="#e7eef6" stroke="#1e4d7b" stroke-width="1.2"/>
<text class="lab" x="28" y="336">Обдув</text>
<text class="sm" x="28" y="354">12/24V плюс · IO32 минус</text>
<rect x="836" y="108" width="250" height="94" rx="8" fill="#e8f0e4" stroke="#1f6b4a" stroke-width="1.2"/>
<text class="lab" x="848" y="126">Концевики / щуп</text>
<text class="sm" x="848" y="144">X− IO36 · S и GND</text>
<text class="sm" x="848" y="162">Y− IO35 · S и GND</text>
<text class="sm" x="848" y="180">Z− IO34 · S и GND</text>
<text class="sm" x="848" y="194">щуп IO22 · NC 2 и 3 · NPN LOW</text>
<rect x="836" y="210" width="250" height="48" rx="8" fill="#f8e6d8" stroke="#9a3412" stroke-width="1.2"/>
<text class="lab" x="848" y="230">ШИМ хотэнда</text>
<text class="sm" x="848" y="248">4 SIG · 9 GND · 24 В мимо</text>
<rect x="836" y="264" width="250" height="48" rx="8" fill="#f8e6d8" stroke="#9a3412" stroke-width="1.2"/>
<text class="lab" x="848" y="284">Реле стола</text>
<text class="sm" x="848" y="302">EXP1: 3 IN · 9 GND · 10 5 В</text>
<rect x="836" y="318" width="250" height="48" rx="8" fill="#e7eef6" stroke="#1e4d7b" stroke-width="1.2"/>
<text class="lab" x="848" y="338">TB6600 Z</text>
<text class="sm" x="848" y="356">EXP1: 7 PUL+ · 5 DIR+ · 9 GND</text>
<rect x="836" y="368" width="250" height="64" rx="8" fill="#e8f0e4" stroke="#1f6b4a" stroke-width="1.2"/>
<text class="lab" x="848" y="386">MAX6675</text>
<text class="sm" x="848" y="404">VCC 3,3 В · 9 GND</text>
<text class="sm" x="848" y="422">2 SCK · 1 DO · 6 CS</text>
<rect x="836" y="440" width="250" height="60" rx="8" fill="#e8f0e4" stroke="#1f6b4a" stroke-width="1.2"/>
<text class="lab" x="848" y="458">NTC стола</text>
<text class="sm" x="848" y="476">подтяжка 4,7 кОм к 3,3 В</text>
<text class="sm" x="848" y="492">NTC на IO33 и GND</text>
<rect x="16" y="556" width="1072" height="72" rx="8" fill="#ffffff" stroke="#cfc4b4" stroke-width="1.2"/>
<text class="lab" x="32" y="578">Не путать</text>
<text class="sm" x="32" y="598">XYZ_EN только экструдер. Оси — бипер. EXP1 пин 1 не трогать. TTL, I2C, SWITCH пустые.</text>
<text class="sm" x="32" y="616">STEP/DIR X и Y — 330 Ом. Сокет Z не трогать. TB6600 — свой БП. Нагрев 24 В — мимо платы. Земля: G / EXP1 пин 9.</text>
<g fill="none" stroke="#5c544c" stroke-width="1.5">
<polyline points="264,116 276,116 276,56 507,56 507,74"/>
<polyline points="264,168 300,168"/>
<polyline points="264,190 278,190 278,216 423,216 423,208"/>
<polyline points="264,290 300,290"/>
<polyline points="264,340 300,340"/>
<polyline points="629,192 629,202 836,202"/>
<polyline points="681,192 681,202"/>
<polyline points="733,192 733,202"/>
<polyline points="785,192 785,202"/>
<polyline points="836,234 828,234 828,294 810,294"/>
<polyline points="836,288 833,288 833,306 810,306"/>
<polyline points="836,342 823,342 823,262 810,262"/>
<polyline points="836,400 825,400 825,392 810,392"/>
<polyline points="836,470 820,470 820,272 810,272"/>
</g>
</svg>
