<?xml version="1.0" encoding="UTF-8" standalone="no"?>
<svg
   width="1100"
   height="720"
   viewBox="0 0 1100 720"
   version="1.1"
   id="svg103"
   sodipodi:docname="02-top.svg"
   inkscape:version="1.4 (e7c3feb100, 2024-10-09)"
   xmlns:inkscape="http://www.inkscape.org/namespaces/inkscape"
   xmlns:sodipodi="http://sodipodi.sourceforge.net/DTD/sodipodi-0.dtd"
   xmlns="http://www.w3.org/2000/svg"
   xmlns:svg="http://www.w3.org/2000/svg">
  <sodipodi:namedview
     id="namedview103"
     pagecolor="#ffffff"
     bordercolor="#666666"
     borderopacity="1.0"
     inkscape:showpageshadow="2"
     inkscape:pageopacity="0.0"
     inkscape:pagecheckerboard="0"
     inkscape:deskcolor="#d1d1d1"
     inkscape:zoom="1.0845455"
     inkscape:cx="526.94885"
     inkscape:cy="426.90694"
     inkscape:window-width="2560"
     inkscape:window-height="1366"
     inkscape:window-x="0"
     inkscape:window-y="37"
     inkscape:window-maximized="1"
     inkscape:current-layer="svg103" />
  <rect
     width="100%"
     height="100%"
     fill="#f6f3ea"
     id="rect1" />
  <style
     id="style1">
  text { font-family: &quot;Liberation Sans&quot;, sans-serif; fill: #241c16; }
  .title { font-size: 22px; font-weight: 700; }
  .sub { font-size: 13px; fill: #6b6258; }
  .lab { font-size: 13px; font-weight: 700; }
  .sm { font-size: 11px; fill: #3c342c; }
  .dim { font-size: 12px; fill: #9a3412; font-weight: 700; }
  .halo { stroke: #f6f3ea; stroke-width: 4px; paint-order: stroke fill; }
</style>
  <defs
     id="defs1">
    <marker
       id="ad"
       viewBox="0 0 10 8"
       refX="9"
       refY="4"
       markerWidth="8"
       markerHeight="6"
       orient="auto">
      <path
         d="M0,0 L10,4 L0,8 Z"
         fill="#9a3412"
         id="path1" />
    </marker>
    <pattern
       id="hatch"
       width="7"
       height="7"
       patternUnits="userSpaceOnUse"
       patternTransform="rotate(40)">
      <line
         x1="0"
         y1="0"
         x2="0"
         y2="7"
         stroke="#9aa3ad"
         stroke-width="1.1"
         id="line1" />
    </pattern>
  </defs>
  <text
     class="title"
     x="28"
     y="36"
     id="text1">Вид сверху</text>
  <text
     class="sub"
     x="28"
     y="56"
     id="text2">Два мотора. Оба обода R=110. Вал B 110 мм от A. Мотор A на плече, B на треугольнике.</text>
  <line
     x1="28"
     y1="68"
     x2="1072"
     y2="68"
     stroke="#e0d6c6"
     id="line2" />
  <rect
     x="70"
     y="78"
     width="980"
     height="16"
     fill="#e4ddd0"
     stroke="#b7ad9e"
     id="rect2" />
  <text
     class="sm"
     x="90"
     y="90"
     id="text3">стена</text>
  <rect
     x="90"
     y="94"
     width="940"
     height="24"
     rx="4"
     fill="#d5dde3"
     stroke="#2a241e"
     stroke-width="1.6"
     id="rect3" />
  <text
     class="sm halo"
     x="150"
     y="111"
     id="text4">рельс Y</text>
  <rect
     x="370"
     y="96"
     width="128.22023"
     height="75.277351"
     rx="2.229917"
     fill="#e4dccf"
     stroke="#2a241e"
     stroke-width="1.8"
     id="rect4" />
  <rect
     x="371.23056"
     y="155.28307"
     width="17.290207"
     height="75.277351"
     rx="0.30069923"
     fill="#e4dccf"
     stroke="#2a241e"
     stroke-width="1.8"
     id="rect4-2" />
  <rect
     x="426.06262"
     y="155.28307"
     width="17.290207"
     height="75.277351"
     rx="0.30069923"
     fill="#e4dccf"
     stroke="#2a241e"
     stroke-width="1.8"
     id="rect4-2-6" />
  <text
     class="lab"
     x="400"
     y="108"
     text-anchor="middle"
     id="text5">каретка</text>
  <path
     d="m 451.7,189.8 -0.9,2.2 -1,2.2 -1,2.2 -1.2,2.1 -1.2,2.1 -1.3,1.9 -1.5,2 -1.5,1.9 -1.5,1.8 -1.7,1.7 -1.7,1.7 -1.8,1.5 -1.9,1.5 -2,1.5 -1.9,1.3 -2.1,1.2 -2.1,1.2 -2.2,1 -2.2,1 -2.2,0.9 -2.3,0.8 -2.3,0.6 -2.3,0.6 -2.3,0.5 -2.4,0.3 -2.4,0.3 -2.4,0.1 -2.4,0.1 -2.4,-0.1 -2.4,-0.1 -2.4,-0.3 -2.4,-0.3 -2.3,-0.5 -2.3,-0.6 -2.3,-0.6 -2.3,-0.8 3.4,-9.4 1.9,0.6 1.9,0.6 1.9,0.4 1.9,0.4 1.9,0.3 2,0.2 1.9,0.2 h 2 2 l 1.9,-0.2 2,-0.2 1.9,-0.3 1.9,-0.4 1.9,-0.4 1.9,-0.6 1.9,-0.6 1.8,-0.7 1.8,-0.8 1.8,-0.9 1.7,-0.9 1.7,-1 1.6,-1.1 1.6,-1.2 1.5,-1.2 1.5,-1.3 1.4,-1.4 1.4,-1.4 1.3,-1.5 1.2,-1.5 1.2,-1.6 1.1,-1.6 1,-1.7 0.9,-1.7 0.9,-1.8 0.8,-1.8 0.7,-1.8 z"
     fill="#c4b49a"
     fill-opacity="0.85"
     stroke="#2a241e"
     stroke-width="1.1"
     id="path7" />
  <line
     x1="450"
     y1="189.2"
     x2="453.79999"
     y2="190.60001"
     stroke="#6b3a1f"
     stroke-width="0.9"
     id="line7" />
  <line
     x1="447.20001"
     y1="195.60001"
     x2="450.70001"
     y2="197.39999"
     stroke="#6b3a1f"
     stroke-width="0.9"
     id="line8" />
  <line
     x1="443.60001"
     y1="201.5"
     x2="446.89999"
     y2="203.8"
     stroke="#6b3a1f"
     stroke-width="0.9"
     id="line9" />
  <line
     x1="439.20001"
     y1="206.89999"
     x2="442.20001"
     y2="209.60001"
     stroke="#6b3a1f"
     stroke-width="0.9"
     id="line10" />
  <line
     x1="434.20001"
     y1="211.8"
     x2="436.79999"
     y2="214.79999"
     stroke="#6b3a1f"
     stroke-width="0.9"
     id="line11" />
  <line
     x1="428.60001"
     y1="215.89999"
     x2="430.70001"
     y2="219.20001"
     stroke="#6b3a1f"
     stroke-width="0.9"
     id="line12" />
  <line
     x1="422.5"
     y1="219.20001"
     x2="424.20001"
     y2="222.79999"
     stroke="#6b3a1f"
     stroke-width="0.9"
     id="line13" />
  <line
     x1="416"
     y1="221.70001"
     x2="417.20001"
     y2="225.60001"
     stroke="#6b3a1f"
     stroke-width="0.9"
     id="line14" />
  <line
     x1="409.20001"
     y1="223.39999"
     x2="409.89999"
     y2="227.29999"
     stroke="#6b3a1f"
     stroke-width="0.9"
     id="line15" />
  <line
     x1="402.29999"
     y1="224.10001"
     x2="402.5"
     y2="228.10001"
     stroke="#6b3a1f"
     stroke-width="0.9"
     id="line16" />
  <line
     x1="395.39999"
     y1="224"
     x2="395"
     y2="228"
     stroke="#6b3a1f"
     stroke-width="0.9"
     id="line17" />
  <line
     x1="388.5"
     y1="222.89999"
     x2="387.60001"
     y2="226.79999"
     stroke="#6b3a1f"
     stroke-width="0.9"
     id="line18" />
  <line
     x1="381.79999"
     y1="221"
     x2="380.39999"
     y2="224.79999"
     stroke="#6b3a1f"
     stroke-width="0.9"
     id="line19" />
  <rect
     x="483.37436"
     y="20.363142"
     width="12"
     height="7"
     rx="1.2"
     fill="#5c6770"
     transform="rotate(20)"
     id="rect19" />
  <rect
     x="72.891449"
     y="-437.87848"
     width="12"
     height="7"
     rx="1.2"
     fill="#5c6770"
     transform="rotate(110)"
     id="rect20" />
  <line
     x1="400"
     y1="171"
     x2="436"
     y2="196.2"
     stroke="#2a241e"
     stroke-width="0.9"
     id="line20" />
  <line
     x1="400"
     y1="171"
     x2="418.60001"
     y2="210.89999"
     stroke="#2a241e"
     stroke-width="0.9"
     id="line21" />
  <line
     x1="400"
     y1="171"
     x2="396.20001"
     y2="214.79999"
     stroke="#2a241e"
     stroke-width="0.9"
     id="line22" />
  <path d="M510.0,171.0 L509.9,173.9 L509.7,176.9 L509.3,179.8 L508.8,182.6 L508.1,185.5 L507.2,188.3 L506.2,191.1 L505.1,193.8 L503.8,196.4 L502.4,199.0 L500.8,201.4 L499.1,203.8 L497.3,206.1 L495.4,208.4 L493.3,210.5 L491.2,212.4 L488.9,214.3 L486.5,216.1 L484.1,217.7 L481.6,219.2 L479.0,220.5 L476.3,221.7 L473.6,222.8 L470.8,223.7 L467.9,224.5 L465.1,225.1 L462.2,225.5 L459.3,225.8 L456.3,226.0 L453.4,226.0 L450.5,225.8 L447.6,225.5 L444.7,225.0 L441.8,224.4 L439.0,223.6 L436.2,222.7 L439.6,213.3 L441.9,214.0 L444.2,214.7 L446.5,215.2 L448.9,215.6 L451.3,215.8 L453.7,216.0 L456.1,216.0 L458.5,215.9 L460.9,215.6 L463.2,215.2 L465.6,214.7 L467.9,214.1 L470.2,213.4 L472.4,212.5 L474.6,211.5 L476.7,210.4 L478.8,209.2 L480.8,207.9 L482.7,206.4 L484.6,204.9 L486.4,203.3 L488.0,201.6 L489.6,199.8 L491.1,197.9 L492.5,195.9 L493.8,193.9 L494.9,191.8 L496.0,189.6 L496.9,187.4 L497.7,185.2 L498.4,182.9 L499.0,180.5 L499.4,178.2 L499.7,175.8 L499.9,173.4 L500.0,171.0 Z" fill="#c4b49a" fill-opacity="0.85" stroke="#2a241e" stroke-width="1.1"/>
<line x1="508.2" y1="171.0" x2="512.2" y2="171.0" stroke="#6b3a1f" stroke-width="0.9"/>
<line x1="507.5" y1="179.5" x2="511.5" y2="180.1" stroke="#6b3a1f" stroke-width="0.9"/>
<line x1="505.5" y1="187.7" x2="509.3" y2="189.0" stroke="#6b3a1f" stroke-width="0.9"/>
<line x1="502.2" y1="195.6" x2="505.7" y2="197.4" stroke="#6b3a1f" stroke-width="0.9"/>
<line x1="497.7" y1="202.8" x2="500.9" y2="205.2" stroke="#6b3a1f" stroke-width="0.9"/>
<line x1="492.1" y1="209.2" x2="494.9" y2="212.0" stroke="#6b3a1f" stroke-width="0.9"/>
<line x1="485.5" y1="214.6" x2="487.8" y2="217.9" stroke="#6b3a1f" stroke-width="0.9"/>
<line x1="478.2" y1="218.9" x2="479.9" y2="222.5" stroke="#6b3a1f" stroke-width="0.9"/>
<line x1="470.3" y1="222.0" x2="471.4" y2="225.8" stroke="#6b3a1f" stroke-width="0.9"/>
<line x1="461.9" y1="223.7" x2="462.5" y2="227.7" stroke="#6b3a1f" stroke-width="0.9"/>
<line x1="453.5" y1="224.2" x2="453.3" y2="228.2" stroke="#6b3a1f" stroke-width="0.9"/>
<line x1="445.0" y1="223.3" x2="444.2" y2="227.2" stroke="#6b3a1f" stroke-width="0.9"/>
<line x1="436.8" y1="221.0" x2="435.4" y2="224.8" stroke="#6b3a1f" stroke-width="0.9"/>
<rect x="504.0" y="167.5" width="12" height="7" rx="1.2" fill="#5c6770" transform="rotate(0.0 510.0 171.0)"/>
<rect x="430.2" y="219.2" width="12" height="7" rx="1.2" fill="#5c6770" transform="rotate(110.0 436.2 222.7)"/>
<line x1="455.0" y1="171.0" x2="496.8" y2="184.8" stroke="#2a241e" stroke-width="0.9"/>
<line x1="455.0" y1="171.0" x2="480.2" y2="207.0" stroke="#2a241e" stroke-width="0.9"/>
<line x1="455.0" y1="171.0" x2="453.7" y2="215.0" stroke="#2a241e" stroke-width="0.9"/>
  <text
     class="sm halo"
     x="356"
     y="241"
     id="text38">обод A 90°</text>
  <text
     class="sm halo"
     x="485.12491"
     y="213.14502"
     id="text39">обод B 110°</text>
  <text
     class="sm halo"
     x="508"
     y="162"
     id="text40">глаз 3</text>
  <path
     id="polygon40"
     style="opacity:0.524793;fill:#c4b49a;fill-opacity:0.4;stroke:#c4b49a;stroke-width:14;stroke-linejoin:round"
     transform="translate(0,-44)"
     d="M 455,273 496.57708,235.61901 455,215 Z"
     sodipodi:nodetypes="cccc" />
  <polygon
     points="435.4,272.1 426.1,260.1 437.4,251.2 446.8,263.2 "
     fill="#efe8dc"
     stroke="#2a241e"
     stroke-width="1"
     id="polygon42"
     transform="translate(0,-44)" />
  <rect
     x="436.84711"
     y="-216.94698"
     width="14"
     height="14"
     rx="1.5"
     fill="#e7f0d4"
     stroke="#2a241e"
     transform="rotate(52)"
     id="rect42" />
  <circle
     cx="435.70001"
     cy="216.70001"
     r="4.8000002"
     fill="#efe8dc"
     stroke="#2a241e"
     id="circle42" />
  <circle
     cx="435.70001"
     cy="216.70001"
     r="1.3"
     fill="#5c6770"
     id="circle43" />
  <circle
     cx="438.70001"
     cy="210.8"
     r="3.5999999"
     fill="#f4f1ea"
     stroke="#2a241e"
     id="circle44" />
  <circle
     cx="438.70001"
     cy="210.8"
     r="1.1"
     fill="#5c6770"
     id="circle45" />
  <circle
     cx="429.29999"
     cy="218.20001"
     r="3.5999999"
     fill="#f4f1ea"
     stroke="#2a241e"
     id="circle46" />
  <circle
     cx="429.29999"
     cy="218.20001"
     r="1.1"
     fill="#5c6770"
     id="circle47" />
  <polygon
     points="447.8,281.8 447.8,266.6 462.2,266.6 462.2,281.8 "
     fill="#efe8dc"
     stroke="#2a241e"
     stroke-width="1"
     id="polygon47"
     transform="translate(0,-44)" />
  <rect
     x="226.79999"
     y="-462"
     width="14"
     height="14"
     rx="1.5"
     fill="#e7f0d4"
     stroke="#2a241e"
     transform="rotate(90)"
     id="rect47" />
  <circle
     cx="455"
     cy="229"
     r="4.8000002"
     fill="#efe8dc"
     stroke="#2a241e"
     id="circle48" />
  <circle
     cx="455"
     cy="229"
     r="1.3"
     fill="#5c6770"
     id="circle49" />
  <circle
     cx="461"
     cy="226.20001"
     r="3.5999999"
     fill="#f4f1ea"
     stroke="#2a241e"
     id="circle50" />
  <circle
     cx="461"
     cy="226.20001"
     r="1.1"
     fill="#5c6770"
     id="circle51" />
  <circle
     cx="449"
     cy="226.20001"
     r="3.5999999"
     fill="#f4f1ea"
     stroke="#2a241e"
     id="circle52" />
  <circle
     cx="449"
     cy="226.20001"
     r="1.1"
     fill="#5c6770"
     id="circle53" />
  <circle
     cx="400"
     cy="171"
     r="10"
     fill="#c4b49a"
     stroke="#2a241e"
     stroke-width="1.2"
     id="circle54" />
  <circle
     cx="400"
     cy="171"
     r="3.5"
     fill="#efe8dc"
     stroke="#2a241e"
     id="circle55" />
  <circle
     cx="400"
     cy="171"
     r="1.3"
     fill="#5c6770"
     id="circle56" />
  <circle
     cx="455"
     cy="171"
     r="10"
     fill="#c4b49a"
     stroke="#2a241e"
     stroke-width="1.2"
     id="circle57" />
  <circle
     cx="455"
     cy="171"
     r="3.5"
     fill="#efe8dc"
     stroke="#2a241e"
     id="circle58" />
  <circle
     cx="455"
     cy="171"
     r="1.3"
     fill="#5c6770"
     id="circle59" />
  <text
     class="sm halo"
     x="378.21793"
     y="210.19615"
     id="text62">мотор A</text>
  <text
     class="sm halo"
     x="470"
     y="234"
     id="text63">мотор B</text>
  <line
     x1="400"
     y1="171"
     x2="538.5"
     y2="348.29999"
     stroke="#1e4d7b"
     stroke-width="15"
     stroke-linecap="butt"
     id="line63"
     style="opacity:0.472753" />
  <line
     x1="583.5"
     y1="346.70001"
     x2="313.70001"
     y2="356.20001"
     stroke="#1f6b4a"
     stroke-width="15"
     stroke-linecap="butt"
     id="line64" />
  <path
     id="polyline66"
     transform="translate(0,-44)"
     style="fill:none;stroke:#6b3a1f;stroke-width:8;stroke-linecap:round;stroke-linejoin:round"
     d="M 529.78514,435.19617 403.6,417 313.7,368.2"
     sodipodi:nodetypes="ccc" />
  <circle
     cx="496.49557"
     cy="191.53751"
     r="8"
     fill="#c4b49a"
     stroke="#2a241e"
     id="circle60" />
  <path
     id="polyline66-1"
     style="fill:none;stroke:#8a5a32;stroke-width:8;stroke-linecap:round;stroke-linejoin:round"
     d="m 496.72397,191.82451 69.35823,76.73255 19.12222,79.44906"
     sodipodi:nodetypes="ccc" />
  <line
     x1="538.2298"
     y1="355.95709"
     x2="529.07733"
     y2="390.95355"
     stroke="#c4b49a"
     stroke-width="20"
     stroke-linecap="round"
     id="line68" />
  <circle
     cx="583.62817"
     cy="346.51804"
     r="12.784124"
     fill="#c4b49a"
     stroke="#2a241e"
     stroke-width="1.6"
     id="circle72-6" />
  <line
     x1="571.65222"
     y1="366.51013"
     x2="532.24176"
     y2="392.62308"
     stroke="#c4b49a"
     stroke-width="20"
     stroke-linecap="round"
     id="line69" />
  <line
     x1="537.27625"
     y1="346.3739"
     x2="579.49493"
     y2="361.94873"
     stroke="#c4b49a"
     stroke-width="20"
     stroke-linecap="round"
     id="line67" />
  <circle
     cx="538.5"
     cy="348.29999"
     r="18"
     fill="#c4b49a"
     stroke="#2a241e"
     stroke-width="1.6"
     id="circle69" />
  <circle
     cx="538.5"
     cy="348.29999"
     r="10"
     fill="#efe8dc"
     stroke="#2a241e"
     stroke-width="1.7"
     id="circle70" />
  <circle
     cx="538.5"
     cy="348.29999"
     r="3"
     fill="#5c6770"
     id="circle71" />
  <circle
     cx="583.5"
     cy="346.70001"
     r="8"
     fill="#efe8dc"
     stroke="#2a241e"
     stroke-width="1.7"
     id="circle82" />
  <circle
     cx="575.98907"
     cy="363.60855"
     r="12.784124"
     fill="#c4b49a"
     stroke="#2a241e"
     stroke-width="1.6"
     id="circle72" />
  <circle
     cx="575.98907"
     cy="363.60855"
     r="7.1022916"
     fill="#efe8dc"
     stroke="#2a241e"
     stroke-width="1.7"
     id="circle73" />
  <circle
     cx="575.98907"
     cy="363.60855"
     r="3"
     fill="#5c6770"
     id="circle74" />
  <circle
     cx="530.11115"
     cy="390.8165"
     r="12.69824"
     fill="#c4b49a"
     stroke="#2a241e"
     stroke-width="1.6"
     id="circle75" />
  <circle
     cx="530.11115"
     cy="390.8165"
     r="7.0545778"
     fill="#efe8dc"
     stroke="#2a241e"
     stroke-width="1.7"
     id="circle76" />
  <circle
     cx="530.11115"
     cy="390.8165"
     r="3"
     fill="#5c6770"
     id="circle77" />
  <rect
     x="384"
     y="155"
     width="32"
     height="32"
     rx="4"
     fill="#d5e1f8"
     stroke="#2456c4"
     stroke-width="1.5"
     id="rect77" />
  <circle
     cx="400"
     cy="171"
     r="10"
     fill="#efe8dc"
     stroke="#2a241e"
     stroke-width="1.7"
     id="circle78" />
  <circle
     cx="400"
     cy="171"
     r="3"
     fill="#5c6770"
     id="circle79" />
  <rect
     x="404"
     y="114"
     width="28"
     height="28"
     rx="4"
     fill="#d5e1f8"
     stroke="#2456c4"
     stroke-width="1.5"
     id="rect79" />
  <circle
     cx="418"
     cy="128"
     r="8"
     fill="#efe8dc"
     stroke="#2a241e"
     stroke-width="1.7"
     id="circle80" />
  <circle
     cx="418"
     cy="128"
     r="2.5999999"
     fill="#5c6770"
     id="circle81" />
  <circle
     cx="583.5"
     cy="346.70001"
     r="2.5999999"
     fill="#5c6770"
     id="circle83" />
  <line
     x1="313.70001"
     y1="324.20001"
     x2="313.70001"
     y2="356.20001"
     stroke="#c4b49a"
     stroke-width="18"
     stroke-linecap="round"
     id="line83" />
  <line
     x1="277.70001"
     y1="378.70001"
     x2="349.70001"
     y2="378.70001"
     stroke="#c4b49a"
     stroke-width="18"
     stroke-linecap="round"
     id="line84" />
  <rect
     x="291.70001"
     y="370.70001"
     width="44"
     height="16"
     rx="2"
     fill="#f3d2c4"
     stroke="#8c3b14"
     id="rect84" />
  <circle
     cx="313.70001"
     cy="356.20001"
     r="14"
     fill="#c4b49a"
     stroke="#2a241e"
     stroke-width="1.6"
     id="circle84" />
  <circle
     cx="313.70001"
     cy="356.20001"
     r="8"
     fill="#efe8dc"
     stroke="#2a241e"
     stroke-width="1.7"
     id="circle85" />
  <circle
     cx="313.70001"
     cy="356.20001"
     r="3"
     fill="#5c6770"
     id="circle86" />
  <circle
     cx="313.70001"
     cy="324.20001"
     r="14"
     fill="#c4b49a"
     stroke="#2a241e"
     stroke-width="1.6"
     id="circle87" />
  <circle
     cx="313.70001"
     cy="324.20001"
     r="8"
     fill="#efe8dc"
     stroke="#2a241e"
     stroke-width="1.7"
     id="circle88" />
  <circle
     cx="313.70001"
     cy="324.20001"
     r="3"
     fill="#5c6770"
     id="circle89" />
  <text
     class="lab halo"
     x="382"
     y="175"
     text-anchor="end"
     id="text89">A</text>
  <text
     class="lab halo"
     x="470"
     y="166"
     id="text90">B</text>
  <text
     class="lab halo"
     x="491.70856"
     y="-210.44199"
     id="text92"
     transform="rotate(52.5601)">плечо A</text>
  <text
     class="sm halo"
     x="481.7355"
     y="-266.68082"
     id="text93"
     transform="rotate(55.413671)">прямая тяга</text>
  <text
     class="sm halo"
     x="582"
     y="274"
     id="text94">тяга B</text>
  <text
     class="sm halo"
     x="512.64087"
     y="340.6347"
     id="text95">1</text>
  <text
     class="sm halo"
     x="582.89221"
     y="384.45886"
     id="text96">зад</text>
  <text
     class="sm halo"
     x="539.87775"
     y="435.63147"
     text-anchor="end"
     id="text97">перед</text>
  <text
     class="sm halo"
     x="599.5"
     y="338.70001"
     id="text98">хвост Б</text>
  <text
     class="lab halo"
     x="531.58838"
     y="227.29483"
     id="text99"
     transform="rotate(18.55111)">плечо Б</text>
  <text
     class="sm halo"
     x="305.70001"
     y="406.70001"
     text-anchor="end"
     id="text100">инструмент</text>
  <path
     id="line65"
     style="opacity:1;stroke:#6b3a1f;stroke-width:8;stroke-linecap:round"
     d="M 418,128 575.86295,362.92782"
     sodipodi:nodetypes="cc" />
  <circle
     cx="496.49557"
     cy="191.53751"
     r="3"
     fill="#efe8dc"
     stroke="#2a241e"
     id="circle61" />
  <circle
     cx="496.49557"
     cy="191.53751"
     r="1.4"
     fill="#5c6770"
     id="circle62" />
</svg>
